HIERARCHY
ROOT joint_Root
{
	OFFSET 0.0 0.0 0.0
	CHANNELS 6 Xposition Yposition Zposition Zrotation Xrotation Yrotation 
	JOINT Hips
	{
		OFFSET 4.5925 91.4895 -427.239
		CHANNELS 6 Xposition Yposition Zposition Zrotation Xrotation Yrotation 
		JOINT Spine
		{
			OFFSET 15.7357 0.0 0.0
			CHANNELS 6 Xposition Yposition Zposition Zrotation Xrotation Yrotation 
			JOINT Chest
			{
				OFFSET 8.98455 -0.406207 0.0
				CHANNELS 6 Xposition Yposition Zposition Zrotation Xrotation Yrotation 
				JOINT Neck
				{
					OFFSET 16.3773 0.0 0.0
					CHANNELS 6 Xposition Yposition Zposition Zrotation Xrotation Yrotation 
					JOINT Head
					{
						OFFSET 6.45672 0.0 0.0
						CHANNELS 6 Xposition Yposition Zposition Zrotation Xrotation Yrotation 
						End Site
						{
							OFFSET 0.0 0.0 0.0
						}
					}
				}
				JOINT Shoulder_L
				{
					OFFSET 12.9942 -0.242716 4.98039
					CHANNELS 6 Xposition Yposition Zposition Zrotation Xrotation Yrotation 
					JOINT UpperArm_L
					{
						OFFSET 5.34809 0.0 0.0
						CHANNELS 6 Xposition Yposition Zposition Zrotation Xrotation Yrotation 
						JOINT LowerArm_L
						{
							OFFSET 24.3286 1.87007e-05 0.0
							CHANNELS 6 Xposition Yposition Zposition Zrotation Xrotation Yrotation 
							JOINT Hand_L
							{
								OFFSET 22.2916 0.0 0.0
								CHANNELS 6 Xposition Yposition Zposition Zrotation Xrotation Yrotation 
								End Site
								{
									OFFSET 0.0 0.0 0.0
								}
							}
						}
					}
				}
				JOINT Shoulder_R
				{
					OFFSET 12.9945 -0.242716 -4.98039
					CHANNELS 6 Xposition Yposition Zposition Zrotation Xrotation Yrotation 
					JOINT UpperArm_R
					{
						OFFSET -5.34813 0.0 0.0
						CHANNELS 6 Xposition Yposition Zposition Zrotation Xrotation Yrotation 
						JOINT LowerArm_R
						{
							OFFSET -24.3289 0.000322201 0.0
							CHANNELS 6 Xposition Yposition Zposition Zrotation Xrotation Yrotation 
							JOINT Hand_R
							{
								OFFSET -22.2915 -0.000108084 0.0
								CHANNELS 6 Xposition Yposition Zposition Zrotation Xrotation Yrotation 
								End Site
								{
									OFFSET 0.0 0.0 0.0
								}
							}
						}
					}
				}
			}
		}
		JOINT UpperLeg_L
		{
			OFFSET -2.19248 -6.46944 0.0
			CHANNELS 6 Xposition Yposition Zposition Zrotation Xrotation Yrotation 
			JOINT LowerLeg_L
			{
				OFFSET 39.0811 0.0 -1.23785e-05
				CHANNELS 6 Xposition Yposition Zposition Zrotation Xrotation Yrotation 
				JOINT Foot_L
				{
					OFFSET 40.9854 0.0 -1.26872e-05
					CHANNELS 6 Xposition Yposition Zposition Zrotation Xrotation Yrotation 
					JOINT Toes_L
					{
						OFFSET 11.7543 0.0 0.0
						CHANNELS 6 Xposition Yposition Zposition Zrotation Xrotation Yrotation 
						End Site
						{
							OFFSET 0.0 0.0 0.0
						}
					}
				}
			}
		}
		JOINT UpperLeg_R
		{
			OFFSET -2.19251 6.46944 0.0
			CHANNELS 6 Xposition Yposition Zposition Zrotation Xrotation Yrotation 
			JOINT LowerLeg_R
			{
				OFFSET -39.0811 -0.00228153 -0.0401928
				CHANNELS 6 Xposition Yposition Zposition Zrotation Xrotation Yrotation 
				JOINT Foot_R
				{
					OFFSET -40.9854 0.0 0.0
					CHANNELS 6 Xposition Yposition Zposition Zrotation Xrotation Yrotation 
					JOINT Toes_R
					{
						OFFSET -11.7543 0.0 0.0
						CHANNELS 6 Xposition Yposition Zposition Zrotation Xrotation Yrotation 
						End Site
						{
							OFFSET 0.0 0.0 0.0
						}
					}
				}
			}
		}
	}
}
MOTION
Frames:	4
Frame Time:	0.0333333
0.000000 0.000000 0.000000 0.000000 0.000000 -0.000000 -2.414880 91.693500 2.268190 89.407100 -7.445840 3.655240 15.735700 0.000005 -0.000001 60.561600 86.044200 -56.873700 8.984550 -0.406207 -0.000000 -0.730959 -4.160800 7.348560 16.377300 -0.000001 -0.000001 6.160960 0.068848 -3.375850 6.456720 -0.000001 -0.000000 3.904590 -0.384869 0.916855 12.994200 -0.242716 4.980390 -84.200100 -12.639800 -65.099600 5.348090 -0.000007 -0.000001 -47.963100 -63.877000 -83.548600 24.328600 0.000019 0.000005 4.736110 3.113730 -56.752400 22.291600 -0.000001 0.000005 12.857200 5.390130 -2.619570 12.994500 -0.242716 -4.980390 87.359000 10.318400 -75.558900 -5.348130 -0.000001 -0.000004 -58.229000 32.273700 3.085660 -24.328900 0.000322 -0.000009 2.296640 5.368020 -23.214000 -22.291500 -0.000108 -0.000004 16.137600 5.411080 -3.301000 -2.192480 -6.469440 -0.000000 -173.353000 -18.152700 0.530948 39.081100 -0.000007 -0.000012 -0.142092 0.338468 22.773300 40.985400 -0.000006 -0.000013 -1.312240 7.698660 -68.519800 11.754300 -0.000000 0.000003 -0.000181 -0.001705 -16.642000 -2.192510 6.469440 -0.000001 175.990000 21.629800 179.771000 -39.081100 -0.002282 -0.040193 -0.089765 0.215106 23.399100 -40.985400 0.000008 0.000006 5.796440 18.563200 -70.256400 -11.754300 -0.000006 -0.000006 -0.319938 -0.388456 -16.327200
0.000000 0.000000 0.000000 0.000000 0.000000 -0.000000 -2.590250 91.794700 2.062970 89.421700 -6.489180 3.548560 15.735700 0.000005 -0.000001 62.390800 86.054600 -58.925400 8.984550 -0.406207 -0.000000 -0.645697 -3.910220 6.907590 16.377300 -0.000001 -0.000001 5.690570 0.081295 -3.218960 6.456720 -0.000001 -0.000000 3.798150 -0.253961 0.534189 12.994200 -0.242716 4.980390 -84.925300 -11.136500 -65.308700 5.348090 -0.000007 -0.000001 -41.504400 -60.589700 -72.377400 24.328600 0.000019 0.000005 4.839080 2.143180 -66.167900 22.291600 -0.000001 0.000005 13.802400 5.379150 -2.271970 12.994500 -0.242716 -4.980390 87.372700 10.182100 -75.448500 -5.348130 -0.000001 -0.000004 -58.351100 32.633500 1.837340 -24.328900 0.000322 -0.000009 2.206690 5.305970 -22.630800 -22.291500 -0.000108 -0.000004 16.122800 5.408740 -3.223560 -2.192480 -6.469440 -0.000000 -173.363000 -17.545600 0.342344 39.081100 -0.000007 -0.000012 -0.133925 0.327051 22.268900 40.985400 -0.000006 -0.000013 -1.368660 8.078680 -68.002700 11.754300 -0.000000 0.000003 -0.000174 -0.001649 -16.640000 -2.192510 6.469440 -0.000001 176.032000 22.689500 -179.981000 -39.081100 -0.002282 -0.040193 -0.096114 0.237747 22.695600 -40.985400 0.000008 0.000006 5.493780 18.774900 -69.766700 -11.754300 -0.000006 -0.000006 -0.313166 -0.380078 -16.332300
0.000000 0.000000 0.000000 0.000000 0.000000 -0.000000 -2.722360 91.897100 1.801490 89.485300 -5.592200 3.364570 15.735700 0.000005 -0.000001 64.865500 86.091200 -61.636600 8.984550 -0.406207 -0.000000 -0.579913 -3.554690 6.438390 16.377300 -0.000001 -0.000001 5.232370 -0.018813 -2.970640 6.456720 -0.000001 -0.000000 3.498490 -0.276659 0.282666 12.994200 -0.242716 4.980390 -85.735600 -9.483270 -65.650000 5.348090 -0.000007 -0.000001 -36.802600 -55.579800 -61.981300 24.328600 0.000019 0.000005 5.685030 1.415930 -76.057600 22.291600 -0.000001 0.000005 14.172400 5.364410 -1.814420 12.994500 -0.242716 -4.980390 87.364900 10.152500 -75.366800 -5.348130 -0.000001 -0.000004 -58.324700 33.100100 0.794694 -24.328900 0.000322 -0.000009 2.027760 4.853780 -22.717300 -22.291500 -0.000108 -0.000004 16.371000 5.407750 -3.191030 -2.192480 -6.469440 -0.000000 -173.477000 -16.987500 0.053569 39.081100 -0.000007 -0.000012 -0.129305 0.324258 21.740900 40.985400 -0.000006 -0.000013 -1.417930 8.386730 -67.450100 11.754300 -0.000000 0.000003 -0.000194 -0.001805 -16.645700 -2.192510 6.469440 -0.000001 176.091000 23.702600 -179.931000 -39.081100 -0.002282 -0.040193 -0.097073 0.247123 22.108900 -40.985400 0.000008 0.000006 5.453620 18.912700 -69.382000 -11.754300 -0.000006 -0.000006 -0.268180 -0.324609 -16.367300
0.000000 0.000000 0.000000 0.000000 0.000000 -0.000000 -2.831770 91.968900 1.538610 89.541100 -4.724130 3.313180 15.735700 0.000005 -0.000001 68.634600 86.052600 -65.656800 8.984550 -0.406207 -0.000000 -0.326134 -3.085640 5.944550 16.377300 -0.000001 -0.000001 4.600590 -0.263614 -2.561090 6.456720 -0.000001 -0.000000 3.138290 -0.592438 0.120608 12.994200 -0.242716 4.980390 -86.577100 -7.834000 -66.307500 5.348090 -0.000007 -0.000001 -34.022500 -48.755900 -52.462500 24.328600 0.000019 0.000005 6.028550 0.513835 -85.146600 22.291600 -0.000001 0.000005 13.976400 5.353820 -1.492270 12.994500 -0.242716 -4.980390 87.359900 10.215900 -75.426200 -5.348130 -0.000001 -0.000004 -58.342100 33.162700 0.125858 -24.328900 0.000322 -0.000009 1.895580 4.363990 -23.518500 -22.291500 -0.000108 -0.000004 16.715700 5.408010 -3.199590 -2.192480 -6.469440 -0.000000 -173.537000 -16.613000 -0.214883 39.081100 -0.000007 -0.000012 -0.123707 0.314795 21.453800 40.985400 -0.000006 -0.000013 -1.398130 8.850520 -67.010100 11.754300 -0.000000 0.000003 -0.000191 -0.001784 -16.644900 -2.192510 6.469440 -0.000001 176.095000 24.544600 -179.856000 -39.081100 -0.002282 -0.040193 -0.102487 0.265917 21.697100 -40.985400 0.000008 0.000006 5.173300 18.965000 -68.975100 -11.754300 -0.000006 -0.000006 -0.226381 -0.273335 -16.399600
